<?xml version="1.0" standalone="no"?>
<!DOCTYPE svg PUBLIC "-//W3C//DTD SVG 20010904//EN"
 "http://www.w3.org/TR/2001/REC-SVG-20010904/DTD/svg10.dtd">
<svg version="1.0" xmlns="http://www.w3.org/2000/svg"
 width="1016.000000pt" height="1016.000000pt" viewBox="0 0 1016.000000 1016.000000"
 preserveAspectRatio="xMidYMid meet">
<metadata>
Created by potrace 1.14, written by Peter Selinger 2001-2017
</metadata>
<g transform="translate(0.000000,1016.000000) scale(0.100000,-0.100000)"
fill="#000000" stroke="none">
<path d="M2475 7635 c-100 -31 -205 -80 -320 -149 -55 -33 -102 -62 -105 -65
-3 -3 -34 -26 -70 -50 -118 -81 -349 -264 -509 -406 -120 -106 -160 -142 -266
-239 -141 -130 -457 -445 -562 -561 -424 -469 -633 -838 -631 -1115 1 -98 26
-187 66 -228 6 -7 12 -17 12 -20 0 -18 90 -96 147 -129 60 -33 156 -69 213
-79 14 -3 31 -7 37 -9 30 -10 169 -19 308 -19 215 0 345 13 669 68 16 3 50 8
75 12 25 3 57 8 71 10 14 2 48 6 75 9 28 3 73 7 100 10 59 6 242 6 304 0 80
-8 177 -43 228 -84 61 -48 93 -115 94 -199 1 -60 -24 -178 -47 -224 -8 -15
-14 -29 -13 -30 6 -18 -113 -248 -182 -352 -32 -49 -59 -92 -59 -95 0 -3 -11
-18 -25 -33 -14 -15 -25 -30 -25 -33 0 -6 -87 -123 -100 -135 -3 -3 -18 -23
-35 -45 -88 -118 -273 -309 -400 -410 -104 -84 -279 -198 -375 -245 -47 -23
-92 -46 -101 -50 -42 -22 -214 -61 -271 -62 -171 -3 -211 81 -123 260 35 70
153 236 217 305 31 34 55 75 53 92 -9 82 -85 90 -153 16 -98 -106 -230 -292
-272 -385 -85 -188 -81 -307 14 -402 95 -95 336 -84 584 25 152 67 401 224
500 316 15 14 31 25 36 25 14 0 306 298 372 380 33 41 87 111 120 155 32 44
61 82 64 85 13 12 122 182 167 260 109 191 182 366 210 510 8 41 8 184 -1 220
-13 56 -60 132 -107 174 -51 46 -164 99 -234 111 -22 3 -58 9 -80 13 -81 14
-447 6 -540 -12 -11 -2 -41 -6 -66 -10 -25 -4 -57 -9 -70 -11 -123 -21 -213
-35 -259 -40 -30 -3 -71 -8 -90 -10 -190 -24 -416 -21 -560 6 -104 20 -230 64
-230 81 0 5 -6 8 -13 8 -20 0 -92 80 -118 130 -36 69 -32 157 14 290 35 102
48 130 113 242 28 47 151 223 178 255 6 7 16 18 21 25 43 54 91 114 95 118 3
3 28 32 55 65 103 123 330 354 546 557 130 122 138 129 238 218 34 30 76 69
95 85 64 58 133 116 206 175 24 19 48 40 54 45 6 6 56 44 111 85 55 41 102 78
105 81 14 15 194 128 265 165 92 49 219 94 275 99 60 5 120 -38 156 -112 28
-56 29 -64 30 -208 1 -130 -10 -271 -31 -404 -3 -20 -9 -63 -12 -96 -14 -133
-4 -160 60 -152 77 10 88 36 112 252 3 22 7 56 10 75 18 128 25 477 11 545
-22 103 -74 187 -142 230 -55 35 -60 36 -149 39 -50 2 -90 -3 -140 -19z"/>
<path d="M4657 7085 c-51 -42 -53 -54 -83 -435 -3 -41 -7 -91 -10 -110 -2 -19
-6 -62 -9 -95 -3 -33 -7 -78 -9 -100 -3 -22 -7 -71 -11 -110 -3 -38 -8 -90
-10 -115 -3 -25 -7 -76 -10 -115 -3 -38 -8 -99 -11 -135 -2 -36 -7 -96 -9
-135 -2 -38 -7 -113 -11 -165 -3 -52 -7 -180 -9 -284 -1 -103 -6 -191 -11
-195 -5 -3 -22 -24 -39 -46 -57 -78 -250 -263 -329 -314 -131 -85 -270 -112
-336 -63 -54 40 -64 81 -65 270 0 192 -2 197 -64 188 -38 -6 -67 -29 -77 -60
-23 -78 -96 -257 -140 -346 -99 -200 -174 -246 -187 -114 -8 78 45 238 90 274
22 17 28 18 52 6 15 -8 34 -10 46 -6 24 9 74 58 76 74 1 6 3 20 4 32 3 27 -13
47 -52 67 -170 89 -389 -188 -379 -478 3 -71 8 -99 27 -133 59 -109 194 -115
305 -15 31 28 114 134 114 146 0 3 10 22 21 42 l21 36 23 -48 c60 -128 184
-167 381 -120 111 27 276 139 432 294 l123 122 10 -27 c60 -160 142 -224 289
-226 91 -1 138 7 220 34 151 51 261 126 440 299 l95 92 7 -42 c17 -95 86 -183
163 -206 86 -27 202 1 287 69 37 29 121 132 130 159 2 6 17 12 33 14 86 9 129
19 220 49 154 52 305 130 375 193 31 29 40 29 34 1 -2 -13 -5 -78 -6 -145 -1
-98 2 -127 16 -147 32 -50 75 -53 127 -11 13 11 71 83 128 159 224 298 363
440 455 463 47 12 98 7 112 -12 17 -23 39 -99 53 -188 36 -215 142 -283 351
-226 114 31 192 82 354 232 54 51 102 93 105 95 4 1 8 -12 9 -30 4 -53 12 -91
22 -104 6 -6 7 -13 5 -16 -3 -3 10 -19 30 -37 64 -56 175 -40 276 40 49 39
141 150 208 254 l53 80 -6 -90 c-7 -114 -16 -228 -21 -284 -3 -29 -18 -65 -47
-110 -23 -36 -45 -68 -49 -71 -11 -10 -149 -240 -149 -250 0 -6 -3 -10 -7 -10
-5 0 -13 -10 -19 -23 -6 -12 -47 -92 -91 -177 -44 -85 -97 -195 -118 -245 -20
-49 -43 -103 -50 -120 -18 -40 -78 -212 -105 -300 -12 -38 -26 -81 -30 -95
-11 -31 -49 -175 -55 -212 -3 -15 -9 -38 -14 -51 -6 -14 -7 -27 -4 -30 3 -3 1
-12 -3 -19 -4 -7 -9 -19 -10 -28 -6 -49 -15 -108 -19 -130 -9 -40 -18 -169
-18 -240 2 -245 94 -389 239 -373 78 8 157 60 229 150 36 44 135 241 161 318
20 59 75 243 78 259 2 12 10 41 17 66 7 25 13 54 15 65 1 11 11 65 23 120 11
55 23 118 26 140 3 22 10 63 15 90 5 28 16 102 25 165 24 169 26 183 31 211 2
14 6 51 9 81 3 30 7 63 9 74 2 10 7 51 11 89 4 39 9 84 11 100 2 17 6 62 9
100 3 39 8 80 10 93 2 12 7 62 11 110 4 48 8 98 9 112 2 14 3 35 4 47 1 12 7
28 14 35 6 7 28 34 46 58 106 138 272 302 445 440 10 8 23 20 30 25 27 25 188
126 266 168 91 49 120 82 120 135 0 36 -31 62 -66 56 -21 -4 -70 -28 -179 -91
-22 -12 -55 -30 -72 -40 -18 -9 -33 -20 -33 -25 0 -4 -5 -8 -10 -8 -6 0 -16
-5 -23 -10 -7 -6 -43 -34 -82 -62 -114 -84 -193 -154 -317 -281 l-118 -120 5
39 c3 21 7 73 10 114 2 41 4 75 5 75 3 0 13 179 14 244 1 69 -1 75 -26 94 -26
19 -27 19 -64 1 -30 -15 -50 -39 -94 -112 -214 -357 -319 -494 -384 -500 -33
-2 -39 10 -38 77 1 82 9 115 48 197 42 89 65 108 114 94 49 -14 53 -13 88 21
35 34 50 86 33 118 -13 24 -91 50 -138 45 -60 -5 -101 -35 -195 -137 -157
-171 -377 -392 -428 -430 -88 -66 -168 -101 -231 -101 -60 0 -75 9 -101 59
-15 28 -32 97 -44 175 -9 54 -34 121 -57 153 -68 91 -221 84 -377 -18 -74 -48
-233 -208 -325 -327 -33 -43 -90 -114 -97 -123 -6 -6 -7 6 -4 30 3 22 8 76 11
120 3 44 8 103 12 130 11 97 1 129 -42 133 -60 5 -103 -40 -112 -117 -4 -32
-14 -43 -98 -116 -53 -46 -168 -121 -228 -149 -68 -31 -167 -66 -167 -60 0 3
-8 1 -17 -5 -10 -5 -39 -12 -65 -15 l-47 -6 0 85 c0 109 -14 157 -57 205 -37
41 -106 66 -158 56 -89 -16 -173 -95 -201 -188 -43 -144 10 -271 128 -308 58
-18 62 -24 36 -48 -50 -48 -121 -64 -173 -41 -55 25 -72 126 -51 300 7 65 7
67 -19 84 -41 27 -92 8 -138 -52 -51 -67 -260 -280 -338 -344 -208 -173 -448
-207 -529 -76 -31 50 -55 126 -67 212 -9 69 -20 274 -15 295 1 3 3 59 6 125 4
116 11 240 20 355 2 30 7 93 10 140 3 47 8 96 10 110 2 14 6 61 10 105 3 44 8
96 10 115 8 65 18 165 20 200 4 68 17 204 20 222 6 27 18 196 18 246 1 71 -54
100 -106 57z m1374 -1697 c11 -11 20 -28 20 -37 1 -9 3 -39 5 -68 l4 -52 -30
9 c-53 15 -86 64 -76 113 12 59 44 74 77 35z m3015 -460 c-3 -29 -9 -82 -12
-118 -3 -36 -7 -76 -10 -90 -2 -14 -7 -56 -10 -95 -3 -38 -7 -77 -9 -85 -3 -8
-7 -37 -10 -65 -5 -45 -9 -74 -20 -155 -2 -14 -7 -45 -10 -70 -3 -25 -9 -58
-12 -75 -3 -16 -6 -41 -8 -55 -2 -14 -6 -43 -10 -65 -3 -22 -8 -53 -11 -70 -4
-29 -19 -113 -29 -165 -2 -14 -16 -77 -30 -140 -15 -63 -28 -122 -30 -130 -1
-8 -13 -45 -25 -83 -12 -37 -23 -73 -24 -80 -3 -14 -8 -26 -46 -119 -68 -164
-141 -257 -194 -244 -26 6 -62 70 -74 128 -14 67 -7 287 12 388 3 14 7 42 10
64 4 21 8 41 10 45 2 3 7 22 10 41 3 19 17 78 31 130 14 52 28 102 30 110 2 8
4 16 4 18 1 1 1 3 1 5 -1 10 87 257 129 362 53 133 241 517 267 546 8 8 14 18
14 22 0 8 54 97 58 97 2 0 1 -24 -2 -52z"/>
<path d="M3037 3861 c-108 -28 -196 -92 -239 -175 -22 -41 -49 -159 -43 -180
2 -6 7 -29 10 -50 18 -126 150 -242 281 -249 24 -1 44 -5 44 -9 0 -4 6 -6 13
-3 6 2 41 6 77 9 36 3 76 8 90 12 14 3 32 6 40 8 8 2 16 13 16 25 1 24 -15 39
-25 24 -22 -35 -177 -46 -258 -19 -73 24 -139 91 -158 161 -39 140 -9 283 76
362 71 65 154 73 275 28 37 -14 67 -25 68 -25 0 0 2 15 3 34 3 37 2 37 -67 52
-62 13 -139 11 -203 -5z"/>
<path d="M4834 3872 c-12 -9 -40 -67 -49 -104 -4 -16 -11 -28 -16 -28 -5 0 -8
-3 -7 -7 1 -8 -9 -36 -41 -106 -27 -61 -54 -121 -56 -127 -1 -3 -8 -21 -17
-40 -8 -19 -32 -75 -53 -125 -21 -49 -42 -94 -47 -99 -14 -17 -9 -26 16 -26
29 0 38 11 62 75 40 108 24 100 188 101 l145 0 17 -40 c9 -23 26 -62 37 -88
l21 -48 53 0 c30 0 52 3 50 8 -8 16 -36 80 -62 142 -33 78 -56 131 -101 227
-19 40 -34 79 -34 86 0 7 -4 17 -8 23 -5 5 -22 41 -37 79 -35 85 -48 106 -61
97z m42 -289 c32 -81 60 -150 62 -153 1 -3 -55 -5 -125 -5 -107 0 -127 3 -125
15 3 14 69 174 98 237 8 17 14 36 14 42 0 36 23 -6 76 -136z"/>
<path d="M3699 3850 c-1 -8 -2 -156 -3 -327 l-1 -313 48 0 c38 0 47 3 48 18 1
9 2 82 2 161 l2 145 143 1 c79 0 146 -3 148 -7 3 -4 5 -77 5 -163 l0 -155 49
0 48 0 1 325 c1 258 -1 325 -11 326 -15 2 -70 2 -81 0 -5 -1 -8 -38 -7 -83 1
-46 1 -111 1 -145 l-1 -63 -149 1 -149 1 0 116 c0 196 5 178 -47 178 -33 -1
-45 -5 -46 -16z"/>
<path d="M5495 3861 c-3 -2 -5 -150 -5 -328 0 -310 1 -323 19 -323 10 0 21 6
23 13 2 6 4 123 4 260 -1 136 1 247 5 247 3 0 101 -119 217 -265 117 -146 216
-265 221 -265 8 0 12 648 4 663 -2 4 -12 3 -22 -3 -16 -8 -18 -28 -18 -230 0
-121 -3 -221 -7 -223 -3 -1 -33 32 -66 73 -33 41 -66 82 -73 90 -7 8 -63 78
-124 155 -100 126 -114 140 -142 140 -18 1 -34 -1 -36 -4z"/>
<path d="M6587 3842 c-143 -58 -209 -151 -223 -312 -10 -126 72 -253 196 -302
46 -18 76 -22 180 -22 92 -1 133 3 155 14 l30 15 2 127 2 126 -39 4 c-21 2
-44 2 -49 0 -7 -2 -11 -49 -11 -128 0 -111 -2 -124 -17 -125 -10 -1 -34 -2
-53 -3 -74 -4 -154 23 -206 72 -29 26 -64 80 -70 107 -12 47 -14 68 -14 120
-1 69 6 109 23 139 6 12 11 24 12 27 1 21 71 90 110 109 66 32 109 30 219 -9
33 -11 61 -20 62 -18 1 1 4 15 6 31 3 26 -1 30 -40 41 -24 7 -80 13 -126 13
-66 0 -96 -5 -149 -26z"/>
<path d="M7357 3860 c-10 -4 -12 -80 -12 -325 l0 -320 189 -3 c104 -1 193 1
196 5 4 5 10 20 14 35 5 22 2 27 -16 30 -13 2 -36 0 -53 -4 -16 -4 -59 -10
-95 -13 -36 -3 -79 -7 -97 -9 -19 -3 -33 0 -35 7 -4 10 -3 247 1 270 0 4 50 7
110 7 98 0 109 2 107 17 -3 16 -16 18 -112 18 l-109 0 0 118 c1 91 4 120 15
127 17 11 122 6 204 -9 32 -6 62 -8 66 -6 4 2 7 17 6 32 l-1 27 -183 0 c-100
1 -188 -1 -195 -4z"/>
</g>
</svg>
