<svg version="1.1" id="Lager_1" xmlns="http://www.w3.org/2000/svg" x="0" y="0" viewBox="0 0 254 129.1" xml:space="preserve"><style>.st0{fill:#323232}</style><path class="st0" d="M-32.2-232.6c-5.6-2.5-16.9 3.7-33.7 18.8-25 22.3-36.4 38.5-34 48.7 2.5 8.9 14.2 11.5 35 7.8 9.2-1.6 15.8-1.8 19.6-.6 3.9 1.3 5.5 3.8 5.2 7.5-.5 3.8-2.5 8.6-6.2 14.4-5.4 8.3-11 14.7-16.7 19.1s-10.8 7.1-15 8c-4.2.9-6.6.4-7.2-1.5-.5-2.7 1.9-7 7-12.8.7-.8 1-1.6.8-2.3-.2-.7-.6-1-1.3-1.2-.6-.1-1.3.2-2.1.9-4.1 4.6-6.5 8.3-7.6 11.1s-1.4 4.9-.8 6.4c1 3.5 4.1 4.9 9.2 4.1 5.2-.7 11.1-3.6 17.9-8.7 6.7-5 13.1-12.2 19.1-21.4 5.1-8.3 7.4-14.7 7-19.2-.5-4.5-3.2-7.3-8.2-8.6-5.1-1.2-11.8-1-20.3.5-9.2 1.6-16.5 2-21.9 1-5.5-1-8.5-3.2-9.5-6.5-.6-1.5-.2-3.9 1.1-7.4 1.2-3.4 4.2-8 9-13.9 4.7-5.9 12.1-13.3 22.1-22.3 9.2-8.2 16.2-13.4 20.7-15.7s7.4-3 8.7-2c2 1.1 3 3.5 2.9 7.3 0 3.8-.4 7.6-1 11.4l-.4 3.5c0 .9.3 1.5.9 1.7.6.2 1.3.1 1.9-.3s1.1-1 1.2-2c.2-1.3.4-2.6.5-3.9.7-4.5.9-8.9.8-13.1-.2-4.4-1.8-7.3-4.7-8.8z" transform="translate(100.27 233.129)"/><path class="st0" d="M-44.7-159.5c-5.9 7.6-11 11.6-15.3 11.9-2.5.1-3.9-.9-4.2-2.9-.4-1.9-.4-4.3-.1-6.9l.1-.6c-.1-.9-.3-1.5-.8-1.7s-1.2-.1-1.8.2c-.7.3-1.1.9-1.3 1.8-1.2 3.4-2.2 6.1-3.2 7.9-.9 1.9-1.6 3.2-2.2 3.8-.6.7-1 1.1-1.2 1.2-.1 0-.3.1-.4 0-.2 0-.4 0-.6-.2-.1-.2-.3-.5-.4-1-.2-1-.1-2.2.3-3.6.3-1.3.7-2.4 1.3-3.3.6-.9 1-1.2 1.6-.9.6.4 1.3.4 2 0 .6-.4 1.2-1 1.4-1.8.2-.8.1-1.4-.5-1.9-1.8-1.2-3.5-1.1-5.3.2s-3.1 3.2-4 5.8c-1 2.6-1.3 5.1-.8 7.5.7 2.8 2.4 3.9 5 3.5 2.5-.4 4.9-2.9 7.1-7.4.7 2.1 1.7 3.4 3.2 4.1 1.5.7 3.3.9 5.5.5 5.3-.9 11.2-5.6 17.7-13.9.6-.8.8-1.6.5-2.3-.3-.6-.8-.9-1.4-1-1-.2-1.7.2-2.2 1z" transform="translate(156.7 223.155)"/><path class="st0" d="M-43.1-160c-3.7 4.3-6.8 7.3-9.1 9.1-2.3 1.8-4.7 2.9-7 3.3-3.2.6-5.4-.6-6.4-3.5-1-2.8-1.5-7.2-1.2-13 .2-5.7.7-12.8 1.5-20.9.3-3.1.6-6.2.9-9.6.1-1.4.2-2.7.4-4.1l.3-4c0-.9-.3-1.6-.8-1.8-.7-.2-1.4-.1-2 .4-.7.4-1 1.2-1.2 2.2l-.4 4c-.1 1.4-.2 2.7-.3 4.1-.3 3.2-.6 6.2-.9 9.1-.9 9.6-1.4 17.7-1.7 24.1-.2 6.5.5 11.2 2.2 14.1 1.6 2.9 4.7 4.1 9.2 3.2 3.3-.6 6.5-2.1 9.3-4.3 2.8-2.3 6.1-5.5 9.8-9.8.7-.8 1-1.5.8-2.2-.2-.7-.7-1-1.4-1.2-.6-.3-1.3 0-2 .8z" transform="translate(182.653 218.568)"/><path class="st0" d="M-51.9-154.1c-1.1-.2-1.8-.6-2.2-1.3s-.6-1.2-.4-1.9c.2-.8.5-1.2 1-1.3.5-.1.9.3 1.3.9.4.8.5 2 .3 3.6zm19.3-7.8c-4.6 4.5-9.7 7.1-15.3 7.8.4-3.9 0-6.4-1.6-7.7-1.6-1.3-3.4-1.4-5.3-.5-1.9.9-3.2 2.6-3.7 5.3-.3 1.6-.1 3.1.7 4.4.8 1.4 2.3 2.3 4.4 2.6-.7 1.1-1.8 1.8-3 2-1.9.3-3-.4-3.4-2.1-.4-1.7-.3-3.7.2-5.8.1-1 0-1.7-.6-2-.6-.3-1.2-.3-1.9-.1-.7.3-1.2.9-1.5 1.9-1 4.4-.8 7.7.7 9.8 1.5 2.1 3.5 2.9 6 2.5 3-.5 5.6-2.6 7.5-6.2 3.1-.2 6.3-1.1 9.9-2.7 3.5-1.5 6.6-3.9 9.4-6.8.6-.8.9-1.5.7-2.2-.2-.7-.6-1-1.3-1.2-.5 0-1.2.3-1.9 1z" transform="translate(203.174 214.94)"/><path class="st0" d="M-11.6-165.8c-.6.6-1.2 1.4-1.8 2-2 2.2-4.1 4.4-6.4 6.5-2.4 2.2-4.6 3.5-6.7 3.9-1.3.2-2.2 0-2.7-.7-.6-.6-1.1-2-1.4-3.9-.1-1.1-.4-2.2-.7-3.4-.4-1.1-1.1-2-1.9-2.7-.8-.7-2.2-.8-3.9-.5-2.5.4-5.2 1.9-7.7 4.5s-5.1 5.6-7.6 9c.2-2 .3-4 .5-5.9.1-1.2.2-2.1.3-3 0-.9-.3-1.5-.8-1.7-.7-.2-1.4-.1-2 .4-.7.4-1 1.1-1.2 2.1-.1 1-.3 2-.4 3.2-.2 1.9-.3 3.8-.4 5.7-.2 1.9-.1 3.3 0 4.5.1 1.3.7 2 1.6 2.1.9.2 1.9-.4 3-1.9 2.5-3.4 5-6.7 7.6-9.7 2.5-2.9 4.8-4.6 6.8-4.9.9-.2 1.6 0 2 .6.4.7.7 1.8 1.1 3.7.1 1.1.4 2.3.8 3.5.4 1.3 1.1 2.2 2.2 2.9 1.1.7 2.5.9 4.7.5 2.8-.5 5.6-2 8.3-4.5s5.3-5 7.7-7.6c.6-.6 1.1-1.2 1.7-1.9.7-.8 1-1.5.9-2.2-.2-.7-.6-1-1.3-1.2-.9-.4-1.6 0-2.3.6z" transform="translate(226.636 210.794)"/><path class="st0" d="M-43.9-90.1c-1.3 1.4-2.3 1.6-3 .5-.7-1-1.2-2.5-1.3-4.4-.3-4.6.8-11 3.3-19.3 2.5-8.1 6.3-16.5 11.5-25-.9 9.8-2.2 19.4-3.8 28.7-1.9 9.5-4 16-6.7 19.5zm35.7-77.1c-7.6 3.7-14.4 9.1-20.1 15.8.3-3.1.4-5.7.6-7.8.2-2 .3-3.6.4-4.7 0-1.3-.5-2-1.4-2.1-.9 0-1.7.4-2.4 1.5-.2.5-.6.9-.9 1.5-1.4 2.4-3.1 5.1-5 8-2 2.9-3.6 4.5-4.8 4.7-.1 0-.2 0-.3.1-.1 0-.1-.1-.2-.2s-.2-.3-.3-.6c-.2-1.1-.1-2.4.2-3.9.4-1.4.9-2.6 1.6-3.7.7-1.1 1.4-1.4 2.2-1 .7.4 1.4.3 2-.3.7-.4 1-1.1 1.2-1.9.2-.8 0-1.3-.7-1.8-1.9-1-3.9-.9-5.7.6-1.8 1.5-3.2 3.5-4.1 6.1-1 2.7-1.2 5.3-.8 7.8.7 2.5 2.2 3.5 4.5 3 1.9-.3 3.7-1.5 5.4-3.5 1.7-2 3.3-4.2 4.8-6.8-.2 2.9-.4 6.5-.8 10.7-6.7 9.5-11.7 19.2-15 29-3.3 9.8-4.9 17.9-4.6 24.1.5 4.7 1.9 7.2 4.3 7.8 2.4.5 4.6-.5 6.8-2.9 3.3-4.1 6-11.3 8-21.7 1.9-10.3 3.4-22.2 4.5-35.6 6-8 13-14.2 21.5-18.5.8-.5 1.3-1.2 1.5-1.9.2-.8 0-1.3-.4-1.8-.4-.4-1.1-.5-2 0z" transform="translate(259.756 204.94)"/><path d="M-64.6-104.7c-2.5 0-4.7-.7-6.4-2.1-1.7-1.4-2.6-3.4-2.6-5.9 0-1.5.3-2.8.9-4 .6-1.2 1.3-2.1 2.3-2.8 1.9-1.4 4-2.1 6.4-2.1 1.4 0 2.8.2 4.2.7l-.2 1.7c-.8-.3-1.4-.6-1.8-.8-1.2-.4-2.5-.7-3.7-.7-1.7.4-3.1 1.3-4 2.6-.9 1.3-1.4 2.9-1.4 4.9 0 2.4.6 4.3 1.9 5.6 1.3 1.3 2.9 2 5 2s3.6-.4 4.6-1.3v1.4c-1.5.5-3.2.8-5.2.8z" transform="translate(145.378 219.3)"/><path d="M-64.2-113.1v8.1h-2.4v-16.3h2.4v7.3h7.5v-7.3h2.4v16.3h-2.4v-8.1h-7.5z" transform="translate(161.852 219.3)"/><path d="M-62.8-105l7.3-16.7h.4l7.3 16.7h-2.7l-1.8-4.4h-7.3l-1.8 4.4h-1.4zm3.5-5.3h6.5l-3.3-8-3.2 8z" transform="translate(179.156 219.3)"/><path d="M-43-104.7h-.4l-10.8-13.5h-.1v13.2h-1.1v-16.3h1.8l9.4 11.8h.1v-11.8h1.1v16.6z" transform="translate(195.575 219.3)"/><path d="M-39.3-112h2.4v6.5c-1.4.6-3.1.8-5.1.8-2.4 0-4.5-.6-6.2-1.9-.8-.6-1.5-1.5-2-2.5s-.8-2.2-.8-3.5c0-1.3.2-2.4.6-3.4.4-1 .9-1.9 1.5-2.5.6-.7 1.4-1.3 2.2-1.7 1.6-.9 3.3-1.3 5.1-1.3.7 0 1.5.1 2.3.2.8.2 1.5.3 1.9.5l-.2 1.6c-2.2-.9-4.1-1.4-5.5-1.4-1.7.4-3 1.3-3.9 2.6-1 1.3-1.4 2.9-1.4 4.9 0 2.4.6 4.2 1.9 5.5 1.3 1.3 2.9 2 5 2 .8 0 1.6-.1 2.2-.2v-6.2z" transform="translate(212.99 219.3)"/><path d="M-43.8-105v-16.3h9.9l-.2 1.6-4.6-.8c-.8 0-1.7.1-2.6.4v6h5.5v.9h-5.5v7.2l7.6-.8-.3 1.8h-9.8z" transform="translate(230.35 219.3)"/></svg>